<svg width="67" height="67" viewBox="0 0 67 67" fill="none" xmlns="http://www.w3.org/2000/svg">
<circle cx="33.5" cy="33.5" r="33.5" fill="#0E0E21"/>
<path d="M52.3351 41.0653L48.373 34.3188C48.234 34.0406 47.8865 33.971 47.6779 34.1797L45.106 35.8489C44.8975 35.988 44.828 36.3358 44.967 36.5444L47.2609 40.3698C47.3304 40.5089 47.2609 40.648 47.1913 40.7175L33.8453 49.3419C33.7758 49.4115 33.6368 49.4115 33.5672 49.3419L20.3602 40.7175C20.2212 40.648 20.2212 40.5089 20.2907 40.3698L22.5846 36.5444C22.7236 36.3358 22.6541 35.988 22.4455 35.8489L19.8736 34.1797C19.5956 34.0406 19.3175 34.1101 19.1785 34.3188L15.2164 41.0653C14.9384 41.5521 15.0774 42.1781 15.564 42.4563L33.2892 54.0019C33.6368 54.2105 34.0538 54.2105 34.4014 54.0019L52.1266 42.4563C52.4742 42.1085 52.6132 41.4826 52.3351 41.0653Z" fill="white"/>
<path d="M21.4272 30.5787L23.994 32.261C24.2715 32.4012 24.549 32.3311 24.6877 32.1209L33.0124 17.821C33.0817 17.6808 33.3592 17.6808 33.4286 17.821L41.7532 32.1209C41.892 32.4012 42.2388 32.4713 42.447 32.261L45.0137 30.5787C45.2218 30.4385 45.2912 30.088 45.1525 29.8777L35.371 12.774C35.1629 12.4235 34.8854 12.2833 34.4692 12.2833H32.1105C31.7637 12.2833 31.4168 12.4936 31.2087 12.774L21.2885 29.8777C21.1497 30.088 21.2191 30.4385 21.4272 30.5787Z" fill="#2AE7A8"/>
</svg>
