<svg width="40" height="40" viewBox="0 0 40 40" fill="none" xmlns="http://www.w3.org/2000/svg">
<circle cx="20" cy="20" r="20" fill="#0E0E21"/>
<path d="M31.2449 24.5166L28.8795 20.4889C28.7965 20.3228 28.589 20.2812 28.4645 20.4058L26.929 21.4024C26.8045 21.4854 26.763 21.693 26.846 21.8176L28.2155 24.1014C28.257 24.1844 28.2155 24.2675 28.174 24.309L20.2062 29.4579C20.1647 29.4994 20.0817 29.4994 20.0402 29.4579L12.1554 24.309C12.0724 24.2675 12.0724 24.1844 12.1139 24.1014L13.4834 21.8176C13.5664 21.693 13.5249 21.4854 13.4004 21.4024L11.8649 20.4058C11.6989 20.3228 11.5329 20.3643 11.4499 20.4889L9.08448 24.5166C8.91848 24.8073 9.00148 25.181 9.29198 25.3471L19.8742 32.2399C20.0817 32.3645 20.3307 32.3645 20.5382 32.2399L31.1204 25.3471C31.3279 25.1395 31.4109 24.7657 31.2449 24.5166Z" fill="white"/>
<path d="M12.7924 18.256L14.3248 19.2604C14.4905 19.3441 14.6562 19.3022 14.739 19.1767L19.7089 10.6395C19.7503 10.5558 19.916 10.5558 19.9574 10.6395L24.9274 19.1767C25.0102 19.3441 25.2173 19.3859 25.3415 19.2604L26.8739 18.256C26.9982 18.1723 27.0396 17.963 26.9567 17.8375L21.1171 7.62632C20.9928 7.41707 20.8272 7.33337 20.5787 7.33337H19.1705C18.9634 7.33337 18.7564 7.45892 18.6321 7.62632L12.7096 17.8375C12.6268 17.963 12.6682 18.1723 12.7924 18.256Z" fill="#2AE7A8"/>
</svg>
