<svg width="24" height="24" viewBox="0 0 24 24" fill="none" xmlns="http://www.w3.org/2000/svg">
<circle cx="12" cy="12" r="12" fill="#0E0E21"/>
<path d="M18.747 14.71L17.3278 12.2933C17.278 12.1936 17.1535 12.1687 17.0788 12.2435L16.1575 12.8414C16.0828 12.8912 16.0579 13.0158 16.1077 13.0905L16.9294 14.4608C16.9543 14.5106 16.9294 14.5605 16.9045 14.5854L12.1238 17.6747C12.0989 17.6996 12.0491 17.6996 12.0242 17.6747L7.29334 14.5854C7.24354 14.5605 7.24354 14.5106 7.26844 14.4608L8.09012 13.0905C8.13992 13.0158 8.11502 12.8912 8.04032 12.8414L7.11904 12.2435C7.01945 12.1936 6.91985 12.2186 6.87005 12.2933L5.45079 14.71C5.35119 14.8844 5.40099 15.1086 5.57528 15.2082L11.9246 19.344C12.0491 19.4187 12.1985 19.4187 12.323 19.344L18.6723 15.2082C18.7968 15.0837 18.8466 14.8594 18.747 14.71Z" fill="white"/>
<path d="M7.67553 10.9536L8.59497 11.5562C8.69437 11.6064 8.79377 11.5813 8.84347 11.506L11.8254 6.38364C11.8503 6.33342 11.9497 6.33342 11.9745 6.38364L14.9565 11.506C15.0062 11.6064 15.1304 11.6315 15.205 11.5562L16.1244 10.9536C16.199 10.9033 16.2238 10.7778 16.1741 10.7025L12.6703 4.57576C12.5958 4.45021 12.4964 4.39999 12.3473 4.39999H11.5024C11.3781 4.39999 11.2539 4.47532 11.1793 4.57576L7.62583 10.7025C7.57613 10.7778 7.60098 10.9033 7.67553 10.9536Z" fill="#2AE7A8"/>
</svg>
