<svg width="24" height="24" viewBox="0 0 24 24" fill="none" xmlns="http://www.w3.org/2000/svg">
<path d="M23.6417 14.9029C22.039 21.3315 15.5279 25.2438 9.09845 23.6407C2.67175 22.0381 -1.24059 15.5265 0.3628 9.09837C1.96478 2.66903 8.47595 -1.24361 14.9034 0.359081C21.3323 1.96177 25.2444 8.47405 23.6415 14.903L23.6416 14.9029H23.6417Z" fill="#F7931A"/>
<path fill-rule="evenodd" clip-rule="evenodd" d="M17.2929 10.2903C17.5317 8.69337 16.3159 7.83495 14.6534 7.2623L15.1927 5.09911L13.8759 4.771L13.3509 6.87723C13.0047 6.79089 12.6492 6.70954 12.2959 6.62889L12.8247 4.50875L11.5087 4.18063L10.9691 6.34312C10.6826 6.2779 10.4013 6.21344 10.1283 6.14551L10.1298 6.13871L8.31392 5.68525L7.96363 7.09168C7.96363 7.09168 8.94059 7.31562 8.92 7.32941C9.45323 7.46249 9.54966 7.81548 9.53365 8.09526L8.9193 10.5596C8.95602 10.569 9.00364 10.5825 9.0562 10.6036L9.01793 10.594L9.01789 10.594C8.98542 10.5859 8.95167 10.5774 8.91701 10.5692L8.0559 14.0214C7.99073 14.1834 7.82533 14.4265 7.45251 14.3342C7.46571 14.3533 6.49544 14.0954 6.49544 14.0954L5.84167 15.6027L7.55528 16.0299C7.74293 16.0769 7.92837 16.1253 8.11193 16.1731L8.11195 16.1731C8.24021 16.2066 8.36756 16.2398 8.49411 16.2721L7.9492 18.4601L9.26448 18.7882L9.80411 16.6235C10.1634 16.721 10.5121 16.811 10.8535 16.8958L10.3157 19.0504L11.6326 19.3785L12.1774 17.1946C14.4228 17.6195 16.1112 17.4482 16.8219 15.4172C17.3945 13.782 16.7934 12.8389 15.6121 12.2238C16.4725 12.0254 17.1205 11.4595 17.2933 10.2905L17.2929 10.2902L17.2929 10.2903ZM14.2843 14.5091C13.9109 16.0093 11.5626 15.3891 10.4882 15.1053C10.3916 15.0798 10.3052 15.057 10.2316 15.0387L10.9547 12.14C11.0444 12.1624 11.1541 12.187 11.2784 12.2149L11.2785 12.2149C12.3898 12.4643 14.6668 12.9753 14.2843 14.5091H14.2843ZM11.5014 10.8696C12.3971 11.1086 14.3512 11.6301 14.6915 10.2666H14.6916C15.0391 8.87209 13.1401 8.45164 12.2126 8.2463C12.1083 8.2232 12.0162 8.20282 11.9411 8.18408L11.2855 10.8131C11.3474 10.8285 11.42 10.8479 11.5014 10.8696Z" fill="white"/>
</svg>
