<svg width="67" height="16" viewBox="0 0 67 16" fill="none" xmlns="http://www.w3.org/2000/svg">
<path d="M0.292893 7.29289C-0.0976311 7.68342 -0.0976311 8.31658 0.292893 8.70711L6.65685 15.0711C7.04738 15.4616 7.68054 15.4616 8.07107 15.0711C8.46159 14.6805 8.46159 14.0474 8.07107 13.6569L2.41421 8L8.07107 2.34315C8.46159 1.95262 8.46159 1.31946 8.07107 0.928932C7.68054 0.538408 7.04738 0.538408 6.65685 0.928932L0.292893 7.29289ZM66.7071 8.70711C67.0976 8.31658 67.0976 7.68342 66.7071 7.29289L60.3431 0.928932C59.9526 0.538408 59.3195 0.538408 58.9289 0.928932C58.5384 1.31946 58.5384 1.95262 58.9289 2.34315L64.5858 8L58.9289 13.6569C58.5384 14.0474 58.5384 14.6805 58.9289 15.0711C59.3195 15.4616 59.9526 15.4616 60.3431 15.0711L66.7071 8.70711ZM1.46429 9C2.01657 9 2.46429 8.55228 2.46429 8C2.46429 7.44772 2.01657 7 1.46429 7V9ZM13.5357 7C12.9834 7 12.5357 7.44772 12.5357 8C12.5357 8.55228 12.9834 9 13.5357 9V7ZM14.4643 9C15.0166 9 15.4643 8.55228 15.4643 8C15.4643 7.44772 15.0166 7 14.4643 7V9ZM26.5357 7C25.9834 7 25.5357 7.44772 25.5357 8C25.5357 8.55228 25.9834 9 26.5357 9V7ZM27.4643 9C28.0166 9 28.4643 8.55228 28.4643 8C28.4643 7.44772 28.0166 7 27.4643 7V9ZM39.5357 7C38.9834 7 38.5357 7.44772 38.5357 8C38.5357 8.55228 38.9834 9 39.5357 9V7ZM40.4643 9C41.0166 9 41.4643 8.55228 41.4643 8C41.4643 7.44772 41.0166 7 40.4643 7V9ZM52.5357 7C51.9834 7 51.5357 7.44772 51.5357 8C51.5357 8.55228 51.9834 9 52.5357 9V7ZM53.4643 9C54.0166 9 54.4643 8.55228 54.4643 8C54.4643 7.44772 54.0166 7 53.4643 7V9ZM65.5357 7C64.9834 7 64.5357 7.44772 64.5357 8C64.5357 8.55228 64.9834 9 65.5357 9V7ZM1 9H1.46429V7H1V9ZM13.5357 9H14.4643V7H13.5357V9ZM26.5357 9H27.4643V7H26.5357V9ZM39.5357 9H40.4643V7H39.5357V9ZM52.5357 9H53.4643V7H52.5357V9ZM65.5357 9H66V7H65.5357V9Z" fill="#2ED47A"/>
</svg>
