<svg width="24" height="24" viewBox="0 0 24 24" fill="none" xmlns="http://www.w3.org/2000/svg">
<circle cx="12" cy="12" r="12" fill="url(#paint0_linear_360_374)"/>
<path fill-rule="evenodd" clip-rule="evenodd" d="M6.78434 6.98957L8.05101 6.31652L8.20003 6.61565L12.8196 3.92348L12.5216 3.69913L12.149 3.47478L12 3.4L4.40002 7.81217V7.96174L6.56081 6.76522L6.78434 6.98957ZM6.78434 9.83132L10.4353 7.66262L10.5843 7.96175L15.2785 5.26958L14.9059 5.04523L14.5334 4.89566L14.3843 4.82088L4.40002 10.5791V10.7287L6.56081 9.53219L6.78434 9.83132ZM11.6275 8.41044L6.78434 11.1774L6.56081 10.8783L4.40002 12.1496V11.9252L15.5765 5.49392L15.7255 5.5687L16.0981 5.79305L16.4706 5.94262L11.7765 8.63479L11.6275 8.41044ZM6.78434 12.5235L12.8196 9.08348L12.9687 9.30783L17.6628 6.69044L17.2902 6.46609L16.9177 6.24175L16.7687 6.16696L4.40002 13.3461V13.4957L6.56081 12.2991L6.78434 12.5235ZM14.0118 9.75654L6.78434 13.9444L6.56081 13.6452L4.40002 14.9165V14.6922L17.9608 6.84002L18.1843 6.98958L18.4824 7.13915L18.8549 7.36349L14.1608 10.0557L14.0118 9.75654ZM19.302 7.66262L19.153 7.51306L4.40002 16.1131V16.2626L6.56081 15.0661L6.78434 15.3652L14.0118 11.1026L14.1608 11.4018L19.6 8.33566V7.81219L19.302 7.66262ZM6.56078 16.4122L5.36862 17.16L5.14509 17.0104L19.6 8.70956V9.68174L14.1608 12.8226L14.0118 12.5235L6.7098 16.7113L6.56078 16.4122ZM14.0118 13.9443L14.1608 14.2435L19.6 11.0278V10.0556L6.33725 17.7582L6.56078 17.833L7.75294 17.0852L7.97646 17.3843L14.0118 13.9443ZM9.01958 17.8331L7.75291 18.5061L7.52938 18.4313L19.6 11.4765V12.4487L14.1608 15.5896L14.0117 15.2904L9.1686 18.1322L9.01958 17.8331ZM8.94518 19.1791L10.2118 18.5061L10.3609 18.8052L14.0118 16.7113L14.1609 17.0104L19.6001 13.8696V12.8226L8.72165 19.1044L8.94518 19.1791ZM10.1373 19.927L9.9138 19.7774L19.6001 14.2435V15.2157L14.1609 18.3565L14.0118 18.0574L11.553 19.4783L11.404 19.1791L10.1373 19.927ZM11.3294 20.6L12.5215 19.8522L12.7451 20.1513L14.0117 19.4783L14.1607 19.7774L19.6 16.6365V15.5896L11.1804 20.5252L11.3294 20.6ZM13.7138 4.37217L14.0863 4.59652L9.39218 7.28869L9.24316 6.98956L6.78434 8.41043L6.56081 8.1113L4.40002 9.38261V9.15826L13.1922 4.07304L13.3412 4.22261L13.7138 4.37217Z" fill="white"/>
<defs>
<linearGradient id="paint0_linear_360_374" x1="0" y1="24" x2="24" y2="24" gradientUnits="userSpaceOnUse">
<stop stop-color="#001C3A"/>
<stop offset="0.6" stop-color="#001E3D"/>
<stop offset="0.7" stop-color="#001F3F"/>
<stop offset="1" stop-color="#002042"/>
</linearGradient>
</defs>
</svg>
