<svg width="24" height="24" viewBox="0 0 24 24" fill="none" xmlns="http://www.w3.org/2000/svg">
<path fill-rule="evenodd" clip-rule="evenodd" d="M12 24C18.6 24 24 18.6 24 12C24 5.4 18.6 0 12 0C5.4 0 0 5.4 0 12C0 18.6 5.4 24 12 24Z" fill="url(#paint0_linear_30_1432)"/>
<path fill-rule="evenodd" clip-rule="evenodd" d="M17.7401 15.3L19.1401 16.1C19.4402 16.3 19.4402 16.6 19.0401 16.9C18.9401 17.2 18.6401 17.2 18.3401 17.1L16.94 16.3L17.24 17.4C17.34 17.8 17.04 18.1 16.74 18.1C16.54 18.1 16.34 17.9 16.24 17.7L15.9399 16.4C15.8399 15.9 15.4399 15.4 14.9399 15.1C14.4398 14.8 13.8398 14.8 13.3398 15.1L13.2398 15.2C12.7397 15.5 12.4397 16 12.4397 16.6C12.4397 17.2 12.7397 17.8 13.1398 18.2L14.0398 19.1C14.3398 19.4 14.1398 20 13.6398 20C13.4398 20 13.3398 19.9 13.2398 19.8L12.4397 19V20.7C12.4397 21 12.2397 21.2 11.9397 21.2C11.6397 21.2 11.4397 21 11.4397 20.7V19L10.6396 19.8C10.4396 20 10.1396 20 9.93955 19.8C9.73954 19.5 9.73954 19.2 9.93955 19L10.7396 18.2C11.2396 17.8 11.4397 17.2 11.4397 16.6C11.4397 16 11.1396 15.5 10.6396 15.2L10.5396 15.1C10.0396 14.8 9.43952 14.8 8.93949 15.1C8.43946 15.4 8.03943 15.8 7.93942 16.4L7.6394 17.7C7.6394 18 7.33938 18.2 7.03936 18.1C6.73935 18 6.53933 17.7 6.63934 17.4L6.93936 16.3C5.56719 17.0718 5.44527 17.1817 5.31224 17.1974C5.29014 17.2 5.26774 17.2 5.23925 17.2C4.63921 17.2 4.4392 16.5 4.93923 16.2L6.33932 15.4L5.23925 15.1C4.93923 15 4.73922 14.7 4.83922 14.4C4.83922 14.1 5.13924 13.9 5.43926 14L6.63934 14.2C7.23938 14.4 7.83942 14.3 8.33945 14C8.83948 13.7 9.1395 13.2 9.1395 12.6V12.4C9.1395 11.8 8.83948 11.3 8.33945 11C7.83942 10.7 7.23938 10.6 6.63934 10.8C5.40129 11.1537 5.3362 11.1946 5.26857 11.1994C5.25972 11.2 5.25082 11.2 5.23925 11.2C5.03923 11.2 4.83922 11 4.73922 10.8C4.63921 10.5 4.83922 10.2 5.13924 10.1L6.23931 9.8L4.83922 9C4.63921 8.9 4.5392 8.5 4.63921 8.3C4.83922 8 5.13924 7.9 5.43926 8.1L6.83935 8.9L6.53933 7.8C6.43933 7.5 6.63934 7.2 6.83935 7.1C7.13937 7 7.43939 7.2 7.5394 7.5L8.03943 8.8C8.13944 9.3 8.53946 9.8 9.03949 10.1C9.53953 10.4 10.1396 10.4 10.6396 10.1L10.7396 10C11.2396 9.7 11.5397 9.2 11.5397 8.6C11.5397 8 11.2396 7.4 10.8396 7L10.3396 6.2C10.1396 5.9 10.1396 5.6 10.3396 5.4C10.5396 5.2 10.8396 5.2 11.0396 5.4L11.8397 6.2V4.5C11.8397 4.2 12.0397 4 12.3397 4C12.6397 4 12.8397 4.2 12.8397 4.5V6.1L13.6398 5.3C13.8398 5.1 14.1398 5.1 14.3398 5.3C14.5399 5.6 14.5399 5.9 14.3398 6.1L13.4398 7C12.9397 7.4 12.7397 8 12.7397 8.6C12.7397 9.2 13.0398 9.7 13.5398 10L13.6398 10.1C14.1398 10.4 14.7399 10.4 15.2399 10.1C15.7399 9.8 16.14 9.4 16.24 8.8L16.54 7.5C16.54 7.2 16.84 7 17.14 7.1C17.44 7.2 17.6401 7.5 17.54 7.8L17.24 8.9L18.6401 8.1C18.8401 8 19.2402 8 19.3402 8.3C19.4402 8.5 19.4402 8.9 19.1401 9L17.8401 9.8L18.9401 10.1C19.2402 10.2 19.4402 10.5 19.3402 10.8C19.2402 11 19.0401 11.2 18.8401 11.2C18.8286 11.2 18.8197 11.2 18.8108 11.1994C18.7432 11.1946 18.6781 11.1537 17.44 10.8C16.84 10.6 16.24 10.7 15.7399 11C15.2399 11.3 14.9399 11.8 14.9399 12.4V12.6C14.9399 13.2 15.2399 13.7 15.7399 14C16.24 14.3 16.84 14.4 17.44 14.2L18.6401 13.9C18.8401 13.8 19.1402 14 19.2402 14.3C19.3402 14.6 19.1402 14.9 18.8401 15L17.7401 15.3ZM12.8397 14.1C13.4398 13.8 13.7398 13.2 13.7398 12.6C13.7398 11.9 13.4398 11.3 12.8397 11.1C12.2397 10.8 11.6397 10.8 11.0396 11.1C10.4396 11.4 10.1396 12 10.1396 12.6C10.1396 13.2 10.5396 13.8 11.0396 14.1C11.6397 14.4 12.2397 14.4 12.8397 14.1Z" fill="white"/>
<defs>
<linearGradient id="paint0_linear_30_1432" x1="23.4507" y1="-2.34695" x2="-2.5108" y2="0.417051" gradientUnits="userSpaceOnUse">
<stop stop-color="#1ADBC5"/>
<stop offset="1" stop-color="#04D3DD"/>
</linearGradient>
</defs>
</svg>
