<svg width="24" height="24" viewBox="0 0 24 24" fill="none" xmlns="http://www.w3.org/2000/svg">
<circle cx="12" cy="12" r="12" fill="#F2941B"/>
<path fill-rule="evenodd" clip-rule="evenodd" d="M12.4729 3.79999H12.4646C12.558 4.55713 12.6154 5.32203 12.6725 6.08406C12.6988 6.43436 12.725 6.78406 12.7546 7.13211C12.8087 7.46659 12.8372 7.80468 12.8397 8.14346L15.7222 11.0078C15.1344 11.8469 14.5393 12.6841 13.9437 13.5221C13.2601 14.4838 12.5758 15.4464 11.9013 16.4137C11.944 16.8965 11.985 17.3793 12.0259 17.8622C12.1075 18.8243 12.1891 19.7866 12.2854 20.7489L20.9999 8.44079H17.1285C16.6359 7.94951 16.1441 7.45755 15.6524 6.96561C14.5952 5.90802 13.5381 4.85051 12.4729 3.79999ZM8.43052 8.52291C6.62613 11.0707 4.82213 13.6179 3.00829 16.1585H3V16.193C3.70517 16.1791 4.41034 16.1803 5.11538 16.1815C5.70637 16.1826 6.29728 16.1836 6.88802 16.1757L11.518 20.8H11.536C11.4411 19.8513 11.361 18.8987 11.2812 17.9498C11.2387 17.4448 11.1964 16.941 11.1519 16.4393C10.5177 15.8185 9.8914 15.1905 9.26752 14.5651C8.94294 14.2396 8.61901 13.9149 8.295 13.5922C8.84915 12.8063 9.40486 12.0236 9.96078 11.2406C10.6796 10.2282 11.3987 9.2153 12.1152 8.19454L11.7484 3.8428C10.6407 5.40211 9.53556 6.96261 8.43052 8.52291Z" fill="white"/>
</svg>
