<svg width="24" height="24" viewBox="0 0 24 24" fill="none" xmlns="http://www.w3.org/2000/svg">
<circle cx="12" cy="12" r="12" fill="#7012FE"/>
<path d="M10.2307 17.7789C8.87469 17.9339 7.88997 18.8444 7.56711 19.2802C7.40568 18.6991 7.21842 17.2753 7.76083 16.2292C8.30323 15.1832 11.8611 14.3728 13.5723 14.0984C11.5221 13.6463 7.42182 12.229 7.42182 10.1756C7.42182 7.60888 10.8603 6.59187 13.1364 6.25287C14.9574 5.98167 16.1552 5.17129 16.5265 4.8C16.4942 5.49415 16.0906 7.15365 14.7346 8.23845C13.3786 9.32326 11.167 9.7559 10.2307 9.83661C12.2647 10.1595 16.3231 11.4057 16.2843 13.8078C16.2359 16.8104 11.9257 17.5852 10.2307 17.7789Z" fill="white"/>
<path d="M14.2503 10.4177C13.8628 10.1853 13.1525 9.93344 12.8458 9.83658C13.2494 9.69129 14.1922 9.33292 14.7346 9.06172C15.277 8.79051 15.8969 8.07699 16.139 7.75414C16.1874 8.10928 16.2553 8.98423 16.139 9.64286C16.0227 10.3015 15.5094 10.9182 15.2673 11.1442C15.0897 10.9989 14.6377 10.6502 14.2503 10.4177Z" fill="white"/>
</svg>
